<?xml version="1.0" encoding="UTF-8" standalone="no"?>
<!DOCTYPE svg PUBLIC "-//W3C//DTD SVG 1.1//EN"
 "http://www.w3.org/Graphics/SVG/1.1/DTD/svg11.dtd">
<!-- Generated by graphviz version 2.42.4 (0)
 -->
<!-- Title: G Pages: 1 -->
<svg width="906pt" height="173pt"
 viewBox="0.00 0.00 905.80 172.80" xmlns="http://www.w3.org/2000/svg" xmlns:xlink="http://www.w3.org/1999/xlink">
<g id="graph0" class="graph" transform="scale(1 1) rotate(0) translate(14.4 158.4)">
<title>G</title>
<polygon fill="white" stroke="transparent" points="-14.4,14.4 -14.4,-158.4 891.4,-158.4 891.4,14.4 -14.4,14.4"/>
<!-- a -->
<g id="node1" class="node">
<title>a</title>
<path fill="#f4f8fa" stroke="#7b9aaa" d="M53,-90C53,-90 12,-90 12,-90 6,-90 0,-84 0,-78 0,-78 0,-66 0,-66 0,-60 6,-54 12,-54 12,-54 53,-54 53,-54 59,-54 65,-60 65,-66 65,-66 65,-78 65,-78 65,-84 59,-90 53,-90"/>
<text text-anchor="middle" x="32.5" y="-68.3" font-family="Arial" font-size="14.00">Gönderi</text>
</g>
<!-- b -->
<g id="node2" class="node">
<title>b</title>
<path fill="#f4f8fa" stroke="#7b9aaa" d="M238,-90C238,-90 113,-90 113,-90 107,-90 101,-84 101,-78 101,-78 101,-66 101,-66 101,-60 107,-54 113,-54 113,-54 238,-54 238,-54 244,-54 250,-60 250,-66 250,-66 250,-78 250,-78 250,-84 244,-90 238,-90"/>
<text text-anchor="middle" x="175.5" y="-68.3" font-family="Arial" font-size="14.00">Türkçe normalizasyon</text>
</g>
<!-- a&#45;&gt;b -->
<g id="edge1" class="edge">
<title>a&#45;&gt;b</title>
<path fill="none" stroke="#557788" d="M65.14,-72C72.93,-72 81.64,-72 90.65,-72"/>
<polygon fill="#557788" stroke="#557788" points="90.91,-75.5 100.91,-72 90.91,-68.5 90.91,-75.5"/>
</g>
<!-- c -->
<g id="node3" class="node">
<title>c</title>
<path fill="#f4f8fa" stroke="#7b9aaa" d="M444,-90C444,-90 298,-90 298,-90 292,-90 286,-84 286,-78 286,-78 286,-66 286,-66 286,-60 292,-54 298,-54 298,-54 444,-54 444,-54 450,-54 456,-60 456,-66 456,-66 456,-78 456,-78 456,-84 450,-90 444,-90"/>
<text text-anchor="middle" x="371" y="-68.3" font-family="Arial" font-size="14.00">Kelime + karakter n&#45;gram</text>
</g>
<!-- b&#45;&gt;c -->
<g id="edge2" class="edge">
<title>b&#45;&gt;c</title>
<path fill="none" stroke="#557788" d="M250.21,-72C258.57,-72 267.18,-72 275.77,-72"/>
<polygon fill="#557788" stroke="#557788" points="275.82,-75.5 285.82,-72 275.82,-68.5 275.82,-75.5"/>
</g>
<!-- d -->
<g id="node4" class="node">
<title>d</title>
<path fill="#f4f8fa" stroke="#7b9aaa" d="M583,-117C583,-117 504,-117 504,-117 498,-117 492,-111 492,-105 492,-105 492,-93 492,-93 492,-87 498,-81 504,-81 504,-81 583,-81 583,-81 589,-81 595,-87 595,-93 595,-93 595,-105 595,-105 595,-111 589,-117 583,-117"/>
<text text-anchor="middle" x="543.5" y="-95.3" font-family="Arial" font-size="14.00">Güvenlik sınıfı</text>
</g>
<!-- c&#45;&gt;d -->
<g id="edge3" class="edge">
<title>c&#45;&gt;d</title>
<path fill="none" stroke="#557788" d="M456.25,-85.34C464.84,-86.7 473.44,-88.06 481.71,-89.37"/>
<polygon fill="#557788" stroke="#557788" points="481.18,-92.83 491.6,-90.94 482.27,-85.92 481.18,-92.83"/>
</g>
<!-- e -->
<g id="node5" class="node">
<title>e</title>
<path fill="#f4f8fa" stroke="#7b9aaa" d="M582.5,-63C582.5,-63 504.5,-63 504.5,-63 498.5,-63 492.5,-57 492.5,-51 492.5,-51 492.5,-39 492.5,-39 492.5,-33 498.5,-27 504.5,-27 504.5,-27 582.5,-27 582.5,-27 588.5,-27 594.5,-33 594.5,-39 594.5,-39 594.5,-51 594.5,-51 594.5,-57 588.5,-63 582.5,-63"/>
<text text-anchor="middle" x="543.5" y="-41.3" font-family="Arial" font-size="14.00">Anlatım biçimi</text>
</g>
<!-- c&#45;&gt;e -->
<g id="edge4" class="edge">
<title>c&#45;&gt;e</title>
<path fill="none" stroke="#557788" d="M456.25,-58.66C464.96,-57.28 473.68,-55.9 482.05,-54.57"/>
<polygon fill="#557788" stroke="#557788" points="482.74,-58.01 492.07,-52.99 481.64,-51.09 482.74,-58.01"/>
</g>
<!-- f -->
<g id="node6" class="node">
<title>f</title>
<path fill="#f4f8fa" stroke="#7b9aaa" d="M768,-90C768,-90 643,-90 643,-90 637,-90 631,-84 631,-78 631,-78 631,-66 631,-66 631,-60 637,-54 643,-54 643,-54 768,-54 768,-54 774,-54 780,-60 780,-66 780,-66 780,-78 780,-78 780,-84 774,-90 768,-90"/>
<text text-anchor="middle" x="705.5" y="-68.3" font-family="Arial" font-size="14.00">Güven / karar mantığı</text>
</g>
<!-- d&#45;&gt;f -->
<g id="edge5" class="edge">
<title>d&#45;&gt;f</title>
<path fill="none" stroke="#557788" d="M595.12,-90.46C603.37,-89.07 612.11,-87.59 620.9,-86.11"/>
<polygon fill="#557788" stroke="#557788" points="621.54,-89.55 630.82,-84.43 620.38,-82.65 621.54,-89.55"/>
</g>
<!-- e&#45;&gt;f -->
<g id="edge6" class="edge">
<title>e&#45;&gt;f</title>
<path fill="none" stroke="#557788" d="M594.69,-53.47C603.01,-54.87 611.84,-56.36 620.72,-57.86"/>
<polygon fill="#557788" stroke="#557788" points="620.32,-61.34 630.76,-59.56 621.48,-54.44 620.32,-61.34"/>
</g>
<!-- g -->
<g id="node7" class="node">
<title>g</title>
<path fill="#f4f8fa" stroke="#7b9aaa" d="M861.5,-144C861.5,-144 831.5,-144 831.5,-144 825.5,-144 819.5,-138 819.5,-132 819.5,-132 819.5,-120 819.5,-120 819.5,-114 825.5,-108 831.5,-108 831.5,-108 861.5,-108 861.5,-108 867.5,-108 873.5,-114 873.5,-120 873.5,-120 873.5,-132 873.5,-132 873.5,-138 867.5,-144 861.5,-144"/>
<text text-anchor="middle" x="846.5" y="-122.3" font-family="Arial" font-size="14.00">Allow</text>
</g>
<!-- f&#45;&gt;g -->
<g id="edge7" class="edge">
<title>f&#45;&gt;g</title>
<path fill="none" stroke="#557788" d="M753.17,-90.13C771.63,-97.3 792.51,-105.41 809.74,-112.11"/>
<polygon fill="#557788" stroke="#557788" points="808.82,-115.51 819.41,-115.86 811.36,-108.98 808.82,-115.51"/>
</g>
<!-- h -->
<g id="node8" class="node">
<title>h</title>
<path fill="#f4f8fa" stroke="#7b9aaa" d="M861.5,-90C861.5,-90 831.5,-90 831.5,-90 825.5,-90 819.5,-84 819.5,-78 819.5,-78 819.5,-66 819.5,-66 819.5,-60 825.5,-54 831.5,-54 831.5,-54 861.5,-54 861.5,-54 867.5,-54 873.5,-60 873.5,-66 873.5,-66 873.5,-78 873.5,-78 873.5,-84 867.5,-90 861.5,-90"/>
<text text-anchor="middle" x="846.5" y="-68.3" font-family="Arial" font-size="14.00">Warn</text>
</g>
<!-- f&#45;&gt;h -->
<g id="edge8" class="edge">
<title>f&#45;&gt;h</title>
<path fill="none" stroke="#557788" d="M780.07,-72C790.18,-72 800.17,-72 809.19,-72"/>
<polygon fill="#557788" stroke="#557788" points="809.28,-75.5 819.28,-72 809.28,-68.5 809.28,-75.5"/>
</g>
<!-- i -->
<g id="node9" class="node">
<title>i</title>
<path fill="#f4f8fa" stroke="#7b9aaa" d="M865,-36C865,-36 828,-36 828,-36 822,-36 816,-30 816,-24 816,-24 816,-12 816,-12 816,-6 822,0 828,0 828,0 865,0 865,0 871,0 877,-6 877,-12 877,-12 877,-24 877,-24 877,-30 871,-36 865,-36"/>
<text text-anchor="middle" x="846.5" y="-14.3" font-family="Arial" font-size="14.00">Review</text>
</g>
<!-- f&#45;&gt;i -->
<g id="edge9" class="edge">
<title>f&#45;&gt;i</title>
<path fill="none" stroke="#557788" d="M753.17,-53.87C770.45,-47.16 789.84,-39.63 806.37,-33.2"/>
<polygon fill="#557788" stroke="#557788" points="807.68,-36.45 815.74,-29.56 805.15,-29.92 807.68,-36.45"/>
</g>
</g>
</svg>
